<?xml version="1.0" standalone="no"?>
<!DOCTYPE svg PUBLIC "-//W3C//DTD SVG 20010904//EN"
 "http://www.w3.org/TR/2001/REC-SVG-20010904/DTD/svg10.dtd">
<svg version="1.0" xmlns="http://www.w3.org/2000/svg"
 width="640.000000pt" height="640.000000pt" viewBox="0 0 640.000000 640.000000"
 preserveAspectRatio="xMidYMid meet">
<metadata>
Created by potrace 1.14, written by Peter Selinger 2001-2017
</metadata>
<g transform="translate(0.000000,640.000000) scale(0.100000,-0.100000)"
fill="#000000" stroke="none">
<path d="M0 3200 l0 -3200 3200 0 3200 0 0 3200 0 3200 -3200 0 -3200 0 0
-3200z m5966 3153 c-10 -10 -19 5 -10 18 6 11 8 11 12 0 2 -7 1 -15 -2 -18z
m-2716 -595 c19 -11 49 -29 65 -38 100 -57 556 -319 895 -515 376 -217 450
-260 678 -392 297 -172 365 -211 447 -256 50 -28 115 -64 145 -81 l55 -32 3
-1329 c1 -732 0 -1339 -3 -1351 -3 -14 -46 -44 -136 -95 -72 -41 -144 -87
-160 -102 -16 -15 -34 -27 -41 -25 -7 1 -40 -13 -73 -32 -195 -111 -626 -361
-662 -383 -24 -15 -44 -27 -47 -27 -2 0 -84 -46 -183 -103 -98 -57 -216 -125
-263 -152 -47 -27 -145 -84 -218 -127 -73 -43 -135 -78 -137 -78 -2 0 -96 -54
-209 -120 l-207 -120 -40 26 c-74 46 -131 76 -136 70 -3 -3 -14 6 -25 19 -11
14 -23 25 -28 25 -5 0 -66 34 -135 75 -70 41 -128 75 -131 75 -2 0 -21 11 -42
23 -20 13 -57 35 -82 49 -49 27 -146 83 -188 109 -70 42 -324 189 -328 189 -2
0 -52 29 -110 65 -59 36 -111 65 -116 65 -6 0 -8 9 -5 20 6 21 -9 28 -16 8 -2
-9 -16 -5 -43 13 -21 15 -66 42 -99 60 -91 49 -100 54 -104 57 -3 1 4 9 15 17
18 14 17 15 -6 5 -22 -10 -34 -6 -82 23 -32 19 -54 38 -50 42 4 4 0 6 -8 5
-25 -4 -60 12 -60 26 0 20 21 17 50 -6 14 -11 35 -20 48 -20 13 0 20 -4 17
-10 -3 -5 1 -10 9 -10 23 0 30 19 9 26 -70 23 -110 53 -76 56 10 0 25 2 33 3
8 1 25 -8 37 -19 13 -11 23 -14 23 -8 0 6 -13 19 -29 28 -17 10 -28 21 -25 25
2 4 -17 1 -43 -7 -26 -8 -51 -21 -56 -29 -11 -21 -34 -19 -68 6 -22 16 -27 24
-19 34 8 9 6 14 -5 19 -8 3 -15 10 -15 16 0 16 30 12 36 -5 4 -8 17 -15 30
-15 12 0 27 -7 32 -16 5 -10 14 -14 21 -9 9 5 6 11 -9 22 -14 10 -19 22 -15
36 2 12 2 16 -1 10 -6 -13 -46 -18 -57 -7 -5 5 7 38 19 52 2 4 33 -11 84 -39
8 -5 31 -16 50 -26 19 -9 37 -20 40 -23 3 -4 12 -10 20 -13 8 -4 33 -18 55
-32 22 -14 49 -30 60 -35 11 -6 29 -16 40 -22 45 -29 103 -63 140 -83 22 -11
49 -26 60 -32 11 -7 65 -38 120 -69 55 -32 102 -60 105 -64 3 -3 25 -16 50
-28 60 -29 159 -84 250 -139 41 -26 102 -61 135 -79 33 -18 130 -73 215 -122
85 -50 193 -112 239 -139 47 -26 113 -65 148 -86 l63 -38 73 45 c39 25 110 67
156 93 46 27 96 55 110 63 14 9 76 44 136 78 61 35 117 67 125 72 61 38 163
97 214 124 33 17 79 43 101 57 38 24 378 222 475 277 25 14 57 33 72 43 14 11
29 19 32 19 4 0 23 11 44 24 41 26 212 125 282 164 25 13 81 46 125 72 92 55
149 87 186 107 15 7 32 19 38 27 8 9 10 360 9 1266 l-3 1252 -140 80 c-368
210 -462 262 -480 272 -11 6 -42 25 -70 42 -27 17 -99 59 -160 94 -60 35 -193
111 -295 170 -102 59 -300 174 -440 255 -140 82 -284 165 -320 185 -36 20
-109 62 -162 93 -53 32 -103 57 -110 57 -8 0 -66 -31 -131 -70 -64 -38 -119
-70 -121 -70 -2 0 -53 -29 -113 -64 -102 -60 -446 -259 -543 -313 -25 -14
-115 -66 -200 -116 -85 -49 -171 -99 -190 -109 -19 -11 -75 -44 -125 -73 -49
-28 -115 -66 -145 -82 -116 -64 -148 -84 -160 -98 -7 -8 -19 -15 -26 -15 -8 0
-35 -13 -61 -29 -27 -15 -111 -63 -188 -105 -77 -42 -147 -82 -156 -89 -14
-11 -16 -123 -22 -1097 -4 -597 -7 -1146 -8 -1220 -1 -83 -4 -125 -9 -110 -6
19 -8 11 -9 -34 -2 -116 -13 -46 -15 98 -1 80 -5 149 -9 152 -4 4 -7 -6 -7
-21 0 -34 -14 -23 -24 18 -5 22 -3 27 13 27 22 0 33 39 21 79 -7 23 -8 20 -9
-17 -1 -28 -5 -41 -12 -37 -6 4 -8 13 -5 21 3 8 1 14 -4 14 -6 0 -10 50 -10
122 0 216 -9 120 -15 -162 -3 -151 -8 -276 -10 -279 -3 -2 -6 81 -6 185 -2
171 -3 181 -10 104 -5 -47 -7 -169 -5 -273 3 -111 1 -185 -4 -182 -6 4 -10
553 -10 1344 l0 1339 37 23 c21 13 52 30 68 38 17 8 104 58 195 111 91 53 242
141 335 195 94 54 211 121 260 150 99 58 427 248 575 333 52 30 158 92 235
137 115 67 365 212 510 295 17 9 46 27 65 38 19 12 42 22 50 22 8 0 31 -10 50
-22z m-1950 -247 c0 -23 -16 -36 -25 -21 -9 14 1 40 15 40 5 0 10 -9 10 -19z
m3927 3 c8 -21 -13 -42 -28 -27 -13 13 -5 43 11 43 6 0 13 -7 17 -16z m-2160
-688 c-4 -9 -11 -16 -17 -16 -11 0 -14 33 -3 44 11 10 26 -11 20 -28z m255
-240 c110 -51 171 -143 172 -261 1 -83 -18 -137 -72 -201 -55 -66 -128 -98
-222 -98 -122 1 -214 55 -268 158 -23 44 -27 63 -27 136 0 108 26 165 102 224
68 52 102 64 190 65 57 1 84 -4 125 -23z m-264 -606 c38 -15 38 -18 11 -67
-12 -21 -46 -83 -77 -138 -30 -55 -68 -125 -85 -155 -17 -30 -43 -76 -57 -102
-46 -84 -209 -382 -246 -448 -20 -36 -66 -119 -102 -185 -35 -66 -73 -132 -83
-147 -11 -14 -19 -31 -19 -36 0 -21 -20 -23 -40 -4 -11 11 -38 28 -60 38 -27
13 -38 24 -34 34 3 8 33 64 67 124 33 61 70 127 81 148 12 21 38 70 59 108 31
58 36 74 26 91 -6 11 -7 24 -3 27 4 4 9 1 11 -5 12 -33 12 -33 168 252 48 88
103 189 123 225 87 158 103 188 132 243 l31 58 32 -24 c18 -13 47 -30 65 -37z
m412 5 c13 -22 54 -96 92 -165 39 -69 122 -219 185 -335 64 -115 132 -239 153
-275 20 -36 52 -92 70 -125 18 -33 42 -76 53 -95 11 -19 36 -64 55 -100 19
-36 44 -81 55 -100 13 -23 15 -36 8 -38 -7 -2 -35 -19 -62 -38 -28 -19 -54
-34 -58 -34 -3 0 -30 44 -58 98 -51 94 -93 169 -145 262 -14 25 -57 101 -95
170 -39 69 -90 161 -114 205 -23 44 -67 122 -96 174 -29 51 -53 95 -53 97 0 3
-10 21 -23 42 -29 46 -127 228 -127 236 0 3 19 14 43 24 23 11 51 27 62 35 23
18 25 16 55 -38z m-830 -385 c0 -5 -4 -10 -10 -10 -5 0 -10 5 -10 10 0 6 5 10
10 10 6 0 10 -4 10 -10z m-2340 -280 c0 -5 -4 -10 -10 -10 -5 0 -10 5 -10 10
0 6 5 10 10 10 6 0 10 -4 10 -10z m3920 0 c0 -5 -4 -10 -10 -10 -5 0 -10 5
-10 10 0 6 5 10 10 10 6 0 10 -4 10 -10z m194 -653 c123 -67 183 -211 141
-339 -9 -29 -32 -73 -51 -97 -62 -81 -136 -116 -239 -116 -248 1 -385 290
-228 482 94 114 244 142 377 70z m-2147 6 c107 -53 167 -156 161 -278 -7 -138
-87 -234 -223 -270 -62 -16 -140 -8 -199 20 -40 19 -116 87 -116 103 0 7 -4
12 -8 12 -15 0 -42 100 -42 156 0 106 71 212 174 260 75 35 178 34 253 -3z
m1643 -279 l0 -75 -702 3 -703 3 -3 73 -3 72 706 0 705 0 0 -76z m-2903 -546
c-2 -13 -4 -3 -4 22 0 25 2 35 4 23 2 -13 2 -33 0 -45z m-3 -58 c-6 -5 -24 21
-24 34 0 6 6 1 14 -10 8 -10 12 -21 10 -24z m66 0 c0 -5 -4 -10 -10 -10 -5 0
-10 5 -10 10 0 6 5 10 10 10 6 0 10 -4 10 -10z m30 -20 c0 -5 8 -10 18 -10 10
0 27 -7 38 -15 23 -17 18 -18 -27 -4 -19 6 -40 13 -47 15 -7 2 -10 8 -7 14 8
13 25 13 25 0z m-62 -16 c27 -8 29 -24 3 -24 -11 0 -22 -6 -25 -12 -3 -7 -3
-3 0 9 4 18 2 22 -10 17 -9 -3 -16 -1 -16 5 0 12 14 14 48 5z m-74 -29 c3 -8
12 -15 21 -15 8 0 15 -4 15 -10 0 -13 -6 -13 -40 5 -31 16 -40 35 -16 35 8 0
16 -7 20 -15z m231 -5 c3 -5 0 -10 -7 -10 -10 0 -9 -3 2 -10 9 -5 19 -5 26 1
7 6 15 6 17 1 3 -4 -7 -13 -23 -19 -24 -9 -32 -8 -51 10 -21 20 -21 21 -3 28
27 11 32 10 39 -1z m-57 -27 c17 -16 9 -43 -13 -43 -18 0 -20 17 -3 22 19 7
-2 28 -28 28 -13 0 -24 5 -24 10 0 14 51 1 68 -17z m-93 -14 c10 -14 1 -21
-19 -13 -9 3 -13 10 -10 15 7 12 21 11 29 -2z m219 -8 c-5 -5 -21 -11 -36 -15
-40 -9 -35 12 5 22 34 10 46 7 31 -7z m46 -16 c9 -11 6 -20 -20 -45 -31 -30
-50 -38 -50 -20 0 6 5 10 10 10 16 0 12 22 -7 36 -16 12 -15 13 10 14 15 0 27
5 27 10 0 15 16 12 30 -5z m-200 -16 c22 -12 43 -25 46 -30 3 -5 9 -9 15 -9
14 0 11 27 -3 34 -7 3 -2 3 12 0 34 -9 34 -10 10 -34 l-21 -21 -46 30 c-26 17
-50 31 -55 31 -4 0 -8 5 -8 10 0 14 4 13 50 -11z m110 -69 c0 -5 -7 -10 -15
-10 -8 0 -15 5 -15 10 0 6 7 10 15 10 8 0 15 -4 15 -10z m50 -30 c0 -5 -9 -6
-20 -3 -11 3 -20 9 -20 13 0 5 9 6 20 3 11 -3 20 -9 20 -13z m1797 -645 c7
-20 -2 -29 -21 -22 -9 4 -13 13 -10 22 8 19 23 19 31 0z m-1802 -265 c-5 -8
-11 -8 -17 -2 -6 6 -7 16 -3 22 5 8 11 8 17 2 6 -6 7 -16 3 -22z m3923 9 c-2
-6 -8 -10 -13 -10 -5 0 -11 4 -13 10 -2 6 4 11 13 11 9 0 15 -5 13 -11z"/>
<path d="M923 2625 c0 -38 2 -53 4 -32 2 20 2 52 0 70 -2 17 -4 1 -4 -38z"/>
<path d="M892 2390 c0 -19 2 -27 5 -17 2 9 2 25 0 35 -3 9 -5 1 -5 -18z"/>
<path d="M963 2335 c0 -27 2 -38 4 -22 2 15 2 37 0 50 -2 12 -4 0 -4 -28z"/>
<path d="M1386 1592 c-2 -4 7 -15 20 -25 13 -10 24 -14 24 -10 0 13 -39 43
-44 35z"/>
<path d="M1322 1519 c2 -7 10 -15 17 -17 8 -3 12 1 9 9 -2 7 -10 15 -17 17 -8
3 -12 -1 -9 -9z"/>
<path d="M1558 1439 c-21 -11 -38 -24 -38 -30 0 -6 15 -1 34 10 18 12 43 21
55 21 11 0 21 5 21 10 0 16 -31 11 -72 -11z"/>
<path d="M1620 1390 c0 -5 4 -10 9 -10 6 0 13 5 16 10 3 6 -1 10 -9 10 -9 0
-16 -4 -16 -10z"/>
<path d="M1664 1375 c-18 -14 -18 -14 4 -8 12 3 22 9 22 14 0 12 -3 11 -26 -6z"/>
<path d="M1715 1370 c10 -11 20 -18 23 -15 7 6 -18 35 -31 35 -5 0 -2 -9 8
-20z"/>
<path d="M1610 1350 c0 -5 5 -10 10 -10 6 0 10 5 10 10 0 6 -4 10 -10 10 -5 0
-10 -4 -10 -10z"/>
<path d="M1786 1271 c-4 -5 3 -7 14 -4 23 6 26 13 6 13 -8 0 -17 -4 -20 -9z"/>
<path d="M1845 1250 c11 -5 27 -9 35 -9 13 -1 13 0 0 9 -8 5 -24 9 -35 9 l-20
0 20 -9z"/>
<path d="M1913 1233 c-18 -6 -16 -23 1 -23 17 0 30 16 19 23 -5 2 -14 2 -20 0z"/>
<path d="M1875 1200 c-3 -5 -1 -10 4 -10 6 0 11 5 11 10 0 6 -2 10 -4 10 -3 0
-8 -4 -11 -10z"/>
<path d="M1980 1130 c0 -5 5 -10 10 -10 6 0 10 5 10 10 0 6 -4 10 -10 10 -5 0
-10 -4 -10 -10z"/>
<path d="M3128 4445 c-29 -16 -62 -65 -72 -108 -7 -31 20 -103 47 -126 55 -45
138 -43 188 5 63 60 62 141 -2 205 -35 35 -44 39 -86 39 -27 -1 -60 -7 -75
-15z"/>
<path d="M4203 2537 c-12 -7 -31 -24 -43 -39 -48 -61 -44 -126 11 -187 26 -31
37 -35 89 -39 59 -4 61 -4 99 35 67 67 67 139 1 205 -33 34 -43 38 -86 38 -27
-1 -59 -6 -71 -13z"/>
<path d="M2085 2545 c-22 -8 -41 -15 -42 -15 -1 0 -14 -20 -28 -43 -27 -48
-32 -91 -13 -134 51 -113 197 -120 257 -13 30 54 27 99 -10 149 -28 39 -79 72
-111 71 -7 -1 -31 -7 -53 -15z"/>
</g>
</svg>
